<svg xmlns="http://www.w3.org/2000/svg" viewBox="0 0 100 100">
  <defs>
    <linearGradient id="capsuleGradient" x1="0%" y1="0%" x2="100%" y2="100%">
      <stop offset="0%" style="stop-color:#7C5CFC"/>
      <stop offset="100%" style="stop-color:#A855F7"/>
    </linearGradient>
  </defs>
  <rect x="10" y="10" width="80" height="80" rx="20" fill="url(#capsuleGradient)"/>
  <path d="M50 25 C35 25 25 35 25 50 C25 65 35 75 50 75 C65 75 75 65 75 50 C75 35 65 25 50 25 M50 35 C60 35 65 40 65 50 C65 60 60 65 50 65 C40 65 35 60 35 50 C35 40 40 35 50 35" fill="white" opacity="0.9"/>
  <circle cx="50" cy="50" r="10" fill="white"/>
</svg>

